<svg xmlns="http://www.w3.org/2000/svg" width="354" height="369" fill="none"><path fill="#260700" d="M201.352 241.416c-7.348 2.989-15.496 4.641-24.188 4.641-8.734 0-16.902-1.652-24.259-4.641zm19.053-12.348a60 60 0 0 1-5.855 4.939h-74.845a60 60 0 0 1-5.848-4.939zm9.863-12.348a60 60 0 0 1-3.32 4.939h-99.619a60 60 0 0 1-3.31-4.939zm-71.343-12.348a25.4 25.4 0 0 0 7.99 4.939h-46.678a61 61 0 0 1-1.865-4.939zm77.015 0a61 61 0 0 1-1.874 4.939h-46.748a25.3 25.3 0 0 0 7.938-4.939zm-84.421-12.348a26.3 26.3 0 0 0 1.848 4.939H116.44a63 63 0 0 1-.764-4.939zm87.131 0a63 63 0 0 1-.768 4.939h-37.088a26.4 26.4 0 0 0 1.845-4.939zm-61.486-68.897c35.477 0 61.876 27.493 61.908 61.488h-35.5c-.03-15.185-11.337-26.439-26.408-26.439-15.242 0-26.549 11.254-26.58 26.439h-35.328c.032-33.995 26.26-61.488 61.908-61.488"/><g clip-path="url(#a)"><path fill="url(#b)" d="M201.352 241.652c-7.348 2.99-15.496 4.641-24.188 4.641-8.734 0-16.902-1.651-24.259-4.641z"/><path fill="url(#c)" d="M220.405 229.304a60 60 0 0 1-5.855 4.939h-74.845a60 60 0 0 1-5.848-4.939z"/><path fill="url(#d)" d="M230.268 216.956a60 60 0 0 1-3.32 4.939h-99.619a60 60 0 0 1-3.31-4.939z"/><path fill="url(#e)" d="M158.925 204.608a25.4 25.4 0 0 0 7.99 4.94h-46.678a61 61 0 0 1-1.865-4.94z"/><path fill="url(#f)" d="M235.94 204.608a61 61 0 0 1-1.874 4.94h-46.748a25.3 25.3 0 0 0 7.938-4.94z"/><path fill="url(#g)" d="M151.519 192.261a26.4 26.4 0 0 0 1.848 4.939H116.44a63 63 0 0 1-.764-4.939z"/><path fill="url(#h)" d="M238.65 192.261a63 63 0 0 1-.768 4.939h-37.088a26.5 26.5 0 0 0 1.845-4.939z"/><path fill="url(#i)" d="M177.164 123.363c35.477 0 61.876 27.494 61.908 61.489h-35.5c-.03-15.186-11.337-26.44-26.408-26.44-15.242 0-26.549 11.254-26.58 26.44h-35.328c.032-33.995 26.26-61.489 61.908-61.489"/></g><defs><radialGradient id="b" cx="0" cy="0" r="1" gradientTransform="scale(64.9001 63.8691)rotate(-90 2.812 .082)" gradientUnits="userSpaceOnUse"><stop offset=".327" stop-color="#F9F3EA"/><stop offset=".595" stop-color="#FE872D"/><stop offset=".737" stop-color="#FF632B"/><stop offset="1" stop-color="#FE64A3"/></radialGradient><radialGradient id="c" cx="0" cy="0" r="1" gradientTransform="scale(64.9001 63.8691)rotate(-90 2.812 .082)" gradientUnits="userSpaceOnUse"><stop offset=".327" stop-color="#F9F3EA"/><stop offset=".595" stop-color="#FE872D"/><stop offset=".737" stop-color="#FF632B"/><stop offset="1" stop-color="#FE64A3"/></radialGradient><radialGradient id="d" cx="0" cy="0" r="1" gradientTransform="scale(64.9001 63.8691)rotate(-90 2.812 .082)" gradientUnits="userSpaceOnUse"><stop offset=".327" stop-color="#F9F3EA"/><stop offset=".595" stop-color="#FE872D"/><stop offset=".737" stop-color="#FF632B"/><stop offset="1" stop-color="#FE64A3"/></radialGradient><radialGradient id="e" cx="0" cy="0" r="1" gradientTransform="scale(64.9001 63.8691)rotate(-90 2.812 .082)" gradientUnits="userSpaceOnUse"><stop offset=".327" stop-color="#F9F3EA"/><stop offset=".595" stop-color="#FE872D"/><stop offset=".737" stop-color="#FF632B"/><stop offset="1" stop-color="#FE64A3"/></radialGradient><radialGradient id="f" cx="0" cy="0" r="1" gradientTransform="scale(64.9001 63.8691)rotate(-90 2.812 .082)" gradientUnits="userSpaceOnUse"><stop offset=".327" stop-color="#F9F3EA"/><stop offset=".595" stop-color="#FE872D"/><stop offset=".737" stop-color="#FF632B"/><stop offset="1" stop-color="#FE64A3"/></radialGradient><radialGradient id="g" cx="0" cy="0" r="1" gradientTransform="scale(64.9001 63.8691)rotate(-90 2.812 .082)" gradientUnits="userSpaceOnUse"><stop offset=".327" stop-color="#F9F3EA"/><stop offset=".595" stop-color="#FE872D"/><stop offset=".737" stop-color="#FF632B"/><stop offset="1" stop-color="#FE64A3"/></radialGradient><radialGradient id="h" cx="0" cy="0" r="1" gradientTransform="scale(64.9001 63.8691)rotate(-90 2.812 .082)" gradientUnits="userSpaceOnUse"><stop offset=".327" stop-color="#F9F3EA"/><stop offset=".595" stop-color="#FE872D"/><stop offset=".737" stop-color="#FF632B"/><stop offset="1" stop-color="#FE64A3"/></radialGradient><radialGradient id="i" cx="0" cy="0" r="1" gradientTransform="scale(64.9001 63.8691)rotate(-90 2.812 .082)" gradientUnits="userSpaceOnUse"><stop offset=".327" stop-color="#F9F3EA"/><stop offset=".595" stop-color="#FE872D"/><stop offset=".737" stop-color="#FF632B"/><stop offset="1" stop-color="#FE64A3"/></radialGradient><clipPath id="a"><path fill="#fff" d="M115.256 123.363h123.817v61.908H115.256z"/></clipPath></defs></svg>